<?xml version="1.0" standalone="no"?>
<!DOCTYPE svg PUBLIC "-//W3C//DTD SVG 20010904//EN"
 "http://www.w3.org/TR/2001/REC-SVG-20010904/DTD/svg10.dtd">
<svg version="1.0" xmlns="http://www.w3.org/2000/svg"
 width="512.000000pt" height="512.000000pt" viewBox="0 0 512.000000 512.000000"
 preserveAspectRatio="xMidYMid meet">

<g transform="translate(0.000000,512.000000) scale(0.100000,-0.100000)"
fill="#000000" stroke="none">
<path d="M2160 5033 c-458 -43 -831 -161 -1193 -375 -71 -43 -87 -61 -87 -100
0 -47 25 -65 157 -109 109 -36 134 -48 169 -83 40 -39 64 -93 64 -142 0 -12
-10 -53 -21 -90 -17 -54 -20 -86 -17 -147 5 -77 8 -85 121 -312 l116 -234 -53
-15 c-163 -48 -252 -214 -199 -375 23 -71 60 -111 241 -255 l157 -126 34 -100
c19 -55 58 -150 87 -211 30 -61 54 -113 54 -115 0 -1 -172 -4 -382 -6 l-383
-3 -67 -32 c-93 -44 -151 -100 -196 -191 l-37 -76 -3 -208 -4 -209 -76 -38
c-101 -51 -181 -112 -273 -208 -118 -124 -195 -256 -242 -413 -39 -131 -47
-209 -47 -480 l0 -251 25 -24 24 -25 2431 0 2431 0 25 25 26 26 -4 292 c-4
277 -6 297 -31 392 -77 292 -276 539 -544 673 l-61 31 -4 209 -3 208 -37 76
c-45 91 -103 147 -196 191 l-67 32 -382 3 c-211 2 -383 5 -383 6 0 2 24 54 54
115 29 61 68 156 87 211 l34 100 135 108 c184 146 218 178 247 236 84 165 -6
362 -189 413 -32 9 -58 19 -58 23 0 4 42 124 94 267 114 313 131 385 123 537
-10 220 -99 412 -261 564 -117 109 -276 186 -436 212 -59 9 -909 12 -1000 3z
m1102 -871 c150 -228 168 -283 175 -539 l5 -183 -376 0 -377 0 -24 -25 c-21
-20 -25 -34 -25 -80 l0 -55 -80 0 -80 0 0 55 c0 46 -4 60 -25 80 l-24 25 -376
0 -375 0 0 59 0 58 273 181 c354 236 376 245 602 262 72 5 164 19 205 31 103
28 229 97 330 178 47 38 87 70 90 70 3 0 40 -52 82 -117z m-1738 -979 c4 -54
12 -131 17 -171 6 -41 9 -75 7 -77 -2 -2 -37 24 -78 57 -80 64 -110 105 -110
153 0 62 71 135 131 135 26 0 26 -1 33 -97z m316 -41 c0 -166 12 -210 73 -270
60 -58 106 -72 247 -72 141 0 187 14 247 72 50 49 73 109 73 190 l0 58 80 0
80 0 0 -59 c0 -79 22 -137 72 -188 58 -59 106 -73 249 -73 140 0 187 14 246
72 61 60 73 104 73 270 l0 138 80 0 c70 0 80 -2 80 -17 0 -59 -24 -263 -41
-348 -39 -197 -123 -429 -219 -605 l-35 -65 -581 -3 c-481 -2 -583 0 -593 11
-6 8 -38 69 -72 136 -71 143 -148 371 -178 526 -18 94 -41 289 -41 348 0 15
10 17 80 17 l80 0 0 -138z m480 3 c0 -131 -1 -137 -25 -160 -23 -24 -31 -25
-135 -25 -104 0 -112 1 -135 25 -24 23 -25 29 -25 160 l0 135 160 0 160 0 0
-135z m800 0 c0 -131 -1 -137 -25 -160 -23 -24 -31 -25 -135 -25 -104 0 -112
1 -135 25 -24 23 -25 29 -25 160 l0 135 160 0 160 0 0 -135z m567 115 c64 -39
89 -118 56 -177 -17 -29 -163 -156 -172 -148 -2 2 2 39 8 82 6 43 14 120 17
171 7 91 7 92 33 92 14 0 40 -9 58 -20z m418 -1207 c47 -25 85 -64 111 -113
18 -33 19 -77 22 -867 l2 -833 -1680 0 -1680 0 2 833 c3 790 4 834 22 867 35
66 87 110 156 131 14 4 695 7 1515 6 l1490 -2 40 -22z"/>
<path d="M1852 1807 c-154 -156 -172 -177 -172 -207 0 -30 18 -51 172 -207
l172 -173 58 57 58 58 -132 132 -133 133 133 133 132 132 -58 58 -58 57 -172
-173z"/>
<path d="M3038 1923 l-58 -58 132 -132 133 -133 -133 -133 -132 -132 58 -58
58 -57 172 173 c155 156 172 177 172 207 0 30 -17 51 -172 207 l-173 173 -57
-57z"/>
<path d="M2501 1659 c-128 -171 -234 -316 -237 -323 -6 -15 116 -110 127 -99
23 26 461 616 465 627 4 11 -63 70 -112 99 -5 3 -112 -131 -243 -304z"/>
<path d="M2462 1106 c-226 -74 -295 -363 -127 -531 66 -67 125 -90 225 -90
103 0 157 22 225 90 69 68 90 122 90 225 0 66 -5 96 -22 132 -28 61 -101 134
-161 160 -59 27 -171 33 -230 14z m191 -179 c98 -74 82 -219 -29 -272 -107
-50 -235 43 -221 161 13 121 155 184 250 111z"/>
</g>
</svg>
