<?xml version="1.0" standalone="no"?>
<!DOCTYPE svg PUBLIC "-//W3C//DTD SVG 20010904//EN"
 "http://www.w3.org/TR/2001/REC-SVG-20010904/DTD/svg10.dtd">
<svg version="1.0" xmlns="http://www.w3.org/2000/svg"
 width="512.000000pt" height="512.000000pt" viewBox="0 0 512.000000 512.000000"
 preserveAspectRatio="xMidYMid meet">

<g transform="translate(0.000000,512.000000) scale(0.100000,-0.100000)"
fill="#000000" stroke="none">
<path d="M347 4929 c-162 -38 -301 -182 -336 -347 -8 -38 -11 -530 -11 -1710
0 -1457 2 -1665 15 -1717 46 -174 189 -306 365 -334 44 -7 636 -11 1803 -11
l1737 0 0 -176 c0 -110 4 -183 11 -197 33 -64 91 -99 161 -99 55 0 71 8 181
100 l77 64 54 -114 c58 -125 93 -164 170 -193 162 -62 341 86 313 259 -3 18
-26 78 -51 133 -25 55 -46 104 -46 109 0 6 50 18 110 28 129 21 165 41 198
106 51 102 26 151 -152 301 l-136 114 0 1635 c0 1783 2 1713 -57 1823 -59 109
-179 200 -301 226 -66 14 -4046 14 -4105 0z m4118 -177 c60 -27 119 -82 148
-137 17 -32 22 -62 25 -152 l4 -113 -2242 0 -2243 0 6 98 c8 122 28 181 80
235 48 49 99 76 166 87 25 4 937 7 2026 6 l1980 -1 50 -23z m175 -1968 l0
-1395 -92 78 c-51 43 -153 128 -226 190 -161 137 -178 147 -249 141 -57 -5
-92 -25 -127 -72 -20 -26 -21 -42 -24 -387 l-3 -359 -1758 0 c-1971 0 -1808
-6 -1900 76 -29 26 -58 65 -72 96 l-24 53 -3 1488 -2 1487 2240 0 2240 0 0
-1396z m-110 -1518 c228 -192 417 -351 419 -353 11 -8 -17 -15 -164 -42 -142
-25 -161 -31 -182 -55 -13 -15 -23 -37 -23 -49 0 -12 32 -89 70 -171 73 -155
83 -201 53 -229 -23 -20 -41 -23 -76 -14 -24 7 -36 23 -71 100 -111 237 -115
244 -146 257 -42 17 -55 10 -200 -106 -67 -53 -123 -94 -126 -92 -2 3 -1 255
3 561 4 396 9 554 17 550 6 -4 198 -164 426 -357z"/>
<path d="M424 4617 c-34 -29 -36 -80 -4 -111 20 -21 29 -21 463 -24 475 -2
477 -2 506 49 19 33 1 81 -35 98 -17 8 -159 11 -464 11 l-439 0 -27 -23z"/>
<path d="M3592 4617 c-30 -32 -29 -81 3 -112 72 -73 178 28 114 109 -27 35
-86 36 -117 3z"/>
<path d="M3932 4617 c-47 -50 -10 -137 58 -137 69 0 107 91 57 138 -32 30 -87
29 -115 -1z"/>
<path d="M4271 4614 c-28 -36 -27 -79 4 -109 50 -51 135 -15 135 58 0 72 -95
107 -139 51z"/>
<path d="M1166 3637 c-34 -34 -34 -80 -1 -112 21 -22 33 -25 103 -25 61 0 85
-4 101 -17 17 -15 61 -167 221 -765 110 -411 208 -765 219 -787 11 -21 37 -53
58 -70 75 -62 69 -62 827 -59 l688 3 24 28 c32 38 31 72 -5 108 l-29 29 -691
0 c-666 0 -692 1 -710 19 -17 17 -51 111 -51 140 0 7 202 11 658 13 l657 3 67
33 c68 33 118 82 152 149 16 33 216 774 216 802 0 68 -50 143 -115 172 -38 18
-90 19 -997 19 l-957 0 -16 55 c-8 30 -22 79 -30 108 -20 71 -47 111 -96 144
-39 26 -52 28 -155 32 -110 3 -113 2 -138 -22z m814 -486 c0 -4 9 -75 20 -156
11 -81 20 -156 20 -167 0 -17 -8 -18 -142 -16 l-143 3 -42 155 c-23 85 -42
163 -43 173 0 15 14 17 165 17 91 0 165 -4 165 -9z m510 -166 l0 -175 -150 0
c-82 0 -150 4 -150 8 0 5 -9 73 -20 152 -11 79 -20 154 -20 167 l0 23 170 0
170 0 0 -175z m516 143 c-3 -18 -12 -87 -21 -153 -8 -66 -18 -130 -20 -142 -5
-23 -8 -23 -155 -23 l-150 0 0 175 0 175 176 0 176 0 -6 -32z m484 22 c15 -9
0 -79 -62 -307 l-9 -33 -146 0 -145 0 5 33 c3 17 13 91 22 162 9 72 18 136 20
143 5 15 291 17 315 2z m-1421 -658 c11 -87 21 -164 21 -170 0 -9 -33 -12
-109 -12 -96 0 -110 2 -115 18 -3 9 -21 78 -41 152 -20 74 -38 143 -41 153 -5
16 6 17 129 17 l134 0 22 -158z m421 -12 l0 -170 -115 0 -114 0 -5 33 c-12 71
-36 259 -36 282 l0 25 135 0 135 0 0 -170z m447 134 c-4 -20 -14 -97 -23 -170
l-18 -134 -118 0 -118 0 0 170 0 170 141 0 142 0 -6 -36z m433 24 c0 -33 -62
-236 -78 -258 -39 -52 -79 -70 -159 -70 -71 0 -73 1 -69 23 3 12 12 78 21 147
24 192 4 170 155 170 97 0 130 -3 130 -12z"/>
<path d="M2185 1733 c-70 -37 -105 -95 -105 -173 0 -206 272 -272 364 -88 14
28 26 68 26 87 -1 71 -59 156 -123 180 -41 16 -127 13 -162 -6z m113 -169 c4
-27 -26 -40 -46 -20 -13 13 -13 18 -2 31 18 21 44 15 48 -11z"/>
<path d="M2925 1735 c-96 -50 -137 -171 -89 -266 28 -55 113 -109 174 -109 63
0 146 54 177 114 39 75 12 181 -61 240 -32 26 -47 31 -104 34 -47 2 -76 -2
-97 -13z m113 -171 c3 -23 -18 -37 -43 -28 -16 6 -20 35 -8 48 14 14 48 1 51
-20z"/>
</g>
</svg>
